<svg id="Layer_1" data-name="Layer 1" xmlns="http://www.w3.org/2000/svg" viewBox="0 0 600 400"><defs><style>.cls-1{fill:#fff;}.cls-2{fill:#652f8d;}</style></defs><title>Artboard 1 copy 8</title><rect class="cls-1" x="-2035.24" y="-1059.75" width="3389.34" height="1608.5"/><path class="cls-2" d="M219.82,108.09a2.44,2.44,0,0,1-1.71-.7c-2.3-2.23-4.59-3.31-6.8-3.19a9,9,0,0,0-5.7,3,2.45,2.45,0,0,1-3.8-3.11A13.9,13.9,0,0,1,211,99.32c3.66-.21,7.2,1.32,10.54,4.56a2.46,2.46,0,0,1-1.71,4.21"/><path class="cls-2" d="M144.66,189a6.1,6.1,0,0,1-3.6-1.17,72.22,72.22,0,1,1,114.15-66.81l5-.1h.17l5,.07a72.22,72.22,0,1,1,114.15,66.84,6.13,6.13,0,0,1-7.21-9.92,60,60,0,1,0-94.61-56.65c6.1.15,13.23.37,20.42.68,40.57,1.77,43.27,4.46,45.44,6.63,1.9,1.9,3.9,5.57,2.61,12.25-2.2,11.45-12.73,27.22-24.9,32.44a40.06,40.06,0,0,1-52.09-19.87l-.18.06a71.75,71.75,0,0,1-4-20.21l-4.67,0-4.71.08a71.82,71.82,0,0,1-4,20.17l-.19-.06a40,40,0,0,1-52.08,19.88c-13.11-5.62-22.8-22.66-24.74-32.8-1-5.25-.18-9.25,2.46-11.89,2.14-2.15,4.57-4.58,45.25-6.46,7.26-.34,14.46-.59,20.61-.77a60,60,0,1,0-94.62,56.57A6.13,6.13,0,0,1,144.66,189m41.77-51.54c.69,5.79,8.52,20.58,17.71,24.51a27.77,27.77,0,0,0,36.49-14.58h0a59.55,59.55,0,0,0,2.61-13.84c-25.23.74-49.38,2.19-56.85,3.89m93.48,9.93A27.81,27.81,0,0,0,316.4,162c9.64-4.13,17.56-19.11,17.92-24.55-7.07-1.86-31.53-3.3-57.06-3.94a59.68,59.68,0,0,0,2.63,13.93Z"/><path class="cls-2" d="M316.83,108.09a2.44,2.44,0,0,1-1.89-.9,9,9,0,0,0-5.7-3c-2.24-.12-4.5,1-6.79,3.19a2.45,2.45,0,0,1-3.42-3.52c3.33-3.24,6.87-4.78,10.54-4.56a13.89,13.89,0,0,1,9.17,4.77,2.45,2.45,0,0,1-1.9,4"/><path class="cls-2" d="M55.32,202.41c0-4.63,0-9.94.17-14.4,12.34-.34,27.41-.51,41.63-.51,7.71,0,15.59,0,25.18,2.91,13.88,4.45,23,18.5,23,33.06,0,13.54-8.74,26-20.22,31.86-7.88,3.94-19.87,5.31-24,5.31-2.23,0-6.85,0-8.05-.16l-.17,23.81,15.59.51c0,4.45,0,9.59-.17,14.22-8.57,0-20.39-.17-30.84-.17-7.37,0-15.25.17-21.93.17,0-4.62.17-9.77.34-14.22l8.05-.51a.63.63,0,0,0,.69-.69V202.75Zm37.69,42c0,1.72,3.08,1.72,6,1.72a17.06,17.06,0,0,0,11.65-4.45c3.6-3.6,5.65-9.77,5.65-17.3,0-12.68-7.71-23-17.47-23a18.67,18.67,0,0,0-5.48.51Z"/><path class="cls-2" d="M195.28,293.2c-10.28,5.15-18.5,7.54-25,7.54-8.9,0-22.1-9.09-22.1-20,0-9.42,11.31-25.86,38.54-25.86h8.23c.51-8.4-2.74-13.54-10.45-13.54-5.65,0-14.73,5-21.59,9.59A130.41,130.41,0,0,1,154,238.72c12.34-10.11,25-17,41.46-17,13.19,0,26.21,11.13,26.21,25.7,0,11.3-.17,27.58-.34,34.94,0,1,0,1.37.86,1.2l9.08-.34c0,4.46.17,9.6,0,14-2.74,1-14.91,3.43-28.61,3.43a68,68,0,0,1-6.51-7.54Zm-12-8.91c4.46,0,8.91-2.23,11.48-3.77a1.44,1.44,0,0,0,.34-1V267.68a24.39,24.39,0,0,0-3.59-.17c-11.31,0-16.1,4.79-16.1,10.28,0,3.94,4.45,6.51,7.88,6.51"/><path class="cls-2" d="M237.76,241c0-4.62.17-9.76.17-14,8.57-.51,33.75-5,34.78-5,.34,0,.34.17.34.51.86,3.59,1.54,7,2.4,10.61l.86.18c16.62-10.11,20.39-11.48,28.26-11.48,7.37,0,14.39,6.68,17.81,12.33a28.14,28.14,0,0,1,3.94,15.24c0,9.77-.34,24-.69,35l8.57.51c0,4.46,0,9.59-.17,14h-22.1c-7.37,0-15.42.17-21.41.17,0-4.45.17-9.59.17-14l6.86-.51a.74.74,0,0,0,.68-.68c.17-7,0-16.62,0-23.13,0-8,0-12.16-1.37-14.73-1.72-3.25-3.94-3.77-6.51-3.77-3.77,0-9.59,2.74-13.71,6-.17,10.11-.51,26.39-.51,36.15l7.36.51c0,4.62,0,9.59-.17,14H261.91c-7,0-15.93.17-22.61.17,0-4.45.17-9.59.17-14l8.39-.51a.63.63,0,0,0,.68-.68V241.29Z"/><path class="cls-2" d="M358.19,295.6c-5.48-4.8-6-8.74-6-13.53,0-9.6.16-17.82.16-19.87,0-3.6.17-20.91.17-22.44h-12c0-4.8.17-9.77.51-14.56,3.42-.18,7.7-.69,11.14-.86a1.33,1.33,0,0,0,1.2-1.37c.34-4.62.86-10.11,1.2-14.22,8.73-4.28,25-9.25,25.52-9.25.34,0,.52.17.52.68-.17,3.77-.35,19.35-.52,24,8.74,0,18.33-.17,26.38-.17,0,5-.17,11-.68,16.1-7.2,0-17.82-.17-25.7-.17v14.22c-.17,7-.17,13.19-.17,20.9a7.81,7.81,0,0,0,7.88,7.71,75.63,75.63,0,0,0,18.67-2.57c.86,4.62,1.54,9.93,2.06,14.39-12,4.62-24.49,6.17-37.17,6.17a18.52,18.52,0,0,1-13.19-5.14"/><path class="cls-2" d="M414.38,241.12c0-4.79.17-10.1.35-14.73,9.24-.68,37-4.62,38.37-4.62.34,0,.34.17.34.51-.18,18.67-.52,44.89-.52,62l9.42.51v14H438.71c-7.37,0-16.45.17-23.3.17,0-4.45,0-9.59.18-14l9.08-.51a.63.63,0,0,0,.69-.68V241.47Zm38.38-44.71c0,9.25-7.37,15.42-15.93,15.42a15.28,15.28,0,0,1-14.9-15.08c0-7.19,6.34-14.22,15.76-14.22,9.93,0,15.07,6.85,15.07,13.88"/><path class="cls-2" d="M505.86,231.7c17.3-9.24,19.18-9.93,26.39-9.93,14.22,0,26.21,16.1,26,33.92a56.94,56.94,0,0,1-5.31,23,42.64,42.64,0,0,1-13,16.62c-3.42,2.57-11.48,5.47-18.34,5.47-6.51,0-11.3-.85-15.07-2.4l-1.19.34c.17,8.57.17,17.3.17,26l13.88.51c0,4.63,0,9.59-.17,14-8.23,0-18.5,0-27.58.17-6.86,0-15.77,0-22.62.17,0-4.45,0-9.42.17-14.06l8.22-.68c.51,0,.69-.34.69-.86l.17-82.74-10.79-.17c0-4.62.17-9.58.34-14,8-1,33.92-5.48,34.77-5.48.34,0,.34.17.34.34.69,3.26,1.2,6.33,1.88,9.59Zm20.39,14.4c-1.37-2.06-3.43-4.45-6.68-4.45-3.43,0-8.39,1.7-13.36,4.79-.17,9.59-.34,23.3-.34,32.9,0,3.42,6.85,6,10.45,6a10.32,10.32,0,0,0,8.73-4.45c2.4-3.59,3.94-9.75,3.94-18.84,0-7.89-1-13.36-2.74-15.93"/><path class="cls-2" d="M60.56,313.22h4.58v21.26H75.45v3.84H60.56Z"/><path class="cls-2" d="M84.69,330.53c.12,3.27,2.64,4.69,5.58,4.69a14.62,14.62,0,0,0,5-.81l.67,3.12a16.23,16.23,0,0,1-6.33,1.16c-5.89,0-9.34-3.62-9.34-9.16,0-5,3.05-9.76,8.86-9.76S97,324.6,97,328.59a11.46,11.46,0,0,1-.15,1.94Zm8-3.21c0-1.67-.7-4.42-3.76-4.42-2.83,0-4,2.57-4.21,4.42Z"/><path class="cls-2" d="M117.9,334a24.55,24.55,0,0,0,.3,4.36h-4.13l-.33-2h-.11a6.63,6.63,0,0,1-5.36,2.41,5.38,5.38,0,0,1-5.7-5.39c0-4.54,4.06-6.89,10.76-6.85v-.29c0-1.2-.48-3.17-3.69-3.17a9.61,9.61,0,0,0-4.88,1.34l-.89-3a13,13,0,0,1,6.56-1.61c5.81,0,7.48,3.7,7.48,7.68Zm-4.47-4.51c-3.24,0-6.33.64-6.33,3.39a2.4,2.4,0,0,0,2.61,2.6,3.76,3.76,0,0,0,3.61-2.49,3.12,3.12,0,0,0,.11-1Z"/><path class="cls-2" d="M125.87,326c0-2.46,0-4.25-.15-5.85h3.95l.19,3.42H130a5.43,5.43,0,0,1,5-3.84,5.08,5.08,0,0,1,1.08.12v4.28a7.91,7.91,0,0,0-1.38-.1,4,4,0,0,0-4.09,3.46,7.92,7.92,0,0,0-.11,1.37v9.42h-4.58Z"/><path class="cls-2" d="M142.3,325.58c0-2.08-.07-3.83-.15-5.39h4l.22,2.72h.11a6.66,6.66,0,0,1,5.81-3.14c3.17,0,6.44,2.06,6.44,7.79v10.76h-4.58V328.07c0-2.61-1-4.58-3.46-4.58a3.84,3.84,0,0,0-3.57,2.68,4.11,4.11,0,0,0-.23,1.45v10.69H142.3Z"/><path class="cls-2" d="M164.6,342.81a60.56,60.56,0,0,0,2.5-9.83l4.8-.37a49.53,49.53,0,0,1-4.17,9.9Z"/><path class="cls-2" d="M200.54,333.32a12.55,12.55,0,0,0,6.07,1.6c2.9,0,4.54-1.37,4.54-3.43,0-1.9-1.26-3-4.43-4.17-4.17-1.48-6.81-3.68-6.81-7.29,0-4.13,3.42-7.22,8.9-7.22a13.09,13.09,0,0,1,6,1.27l-1.08,3.69a10.94,10.94,0,0,0-5-1.2c-2.91,0-4.14,1.53-4.14,3,0,1.94,1.45,2.83,4.8,4.14,4.36,1.64,6.44,3.84,6.44,7.45,0,4.05-3.05,7.55-9.49,7.55a14.54,14.54,0,0,1-6.82-1.59Z"/><path class="cls-2" d="M222.8,311.88h4.58v10.75h.08a6,6,0,0,1,2.27-2,6.45,6.45,0,0,1,3.16-.83c3.09,0,6.33,2.06,6.33,7.87v10.69h-4.58v-10.2c0-2.61-1-4.62-3.5-4.62a3.82,3.82,0,0,0-3.58,2.57,4.16,4.16,0,0,0-.19,1.38v10.88H222.8Z"/><path class="cls-2" d="M261.34,334a24.32,24.32,0,0,0,.3,4.36h-4.13l-.34-2h-.11a6.64,6.64,0,0,1-5.36,2.41,5.37,5.37,0,0,1-5.7-5.39c0-4.54,4.06-6.89,10.76-6.85v-.29c0-1.2-.48-3.17-3.69-3.17a9.6,9.6,0,0,0-4.87,1.34l-.89-3a13,13,0,0,1,6.55-1.61c5.81,0,7.48,3.7,7.48,7.68Zm-4.47-4.51c-3.24,0-6.33.64-6.33,3.39a2.4,2.4,0,0,0,2.61,2.6,3.76,3.76,0,0,0,3.61-2.49,3.06,3.06,0,0,0,.11-1Z"/><path class="cls-2" d="M269.31,326c0-2.46,0-4.25-.15-5.85h3.95l.19,3.42h.11a5.43,5.43,0,0,1,5-3.84,5.07,5.07,0,0,1,1.08.12v4.28a7.91,7.91,0,0,0-1.38-.1,4,4,0,0,0-4.09,3.46,7.62,7.62,0,0,0-.11,1.37v9.42h-4.58Z"/><path class="cls-2" d="M288.64,330.53c.12,3.27,2.64,4.69,5.59,4.69a14.59,14.59,0,0,0,5-.81l.67,3.12a16.24,16.24,0,0,1-6.33,1.16c-5.88,0-9.34-3.62-9.34-9.16,0-5,3.05-9.76,8.86-9.76s7.82,4.84,7.82,8.83a11.37,11.37,0,0,1-.15,1.94Zm8-3.21c0-1.67-.7-4.42-3.76-4.42-2.83,0-4,2.57-4.21,4.42Z"/><path class="cls-2" d="M342.33,338.32c-.52-.52-1-1-1.61-1.71a8.64,8.64,0,0,1-5.79,2c-4.51,0-6.76-2.83-6.76-5.82,0-2.74,1.61-4.69,4-5.94v-.1a6.58,6.58,0,0,1-1.64-4.11,5.35,5.35,0,0,1,5.73-5.27c2.89,0,5.12,1.8,5.12,4.6,0,2.13-1.25,3.86-4.23,5.39l0,.08c1.43,1.65,3,3.48,4.14,4.7a14.19,14.19,0,0,0,1.86-5.46h3.35c-.55,3.17-1.49,5.79-3.2,7.71,1.17,1.28,2.26,2.53,3.51,3.87Zm-3.39-3.84c-1.24-1.28-3.2-3.47-5.15-5.7a4.25,4.25,0,0,0-2.08,3.47,3.59,3.59,0,0,0,3.79,3.63A4.84,4.84,0,0,0,338.94,334.48Zm-5.09-12.15a4.89,4.89,0,0,0,1.49,3.28c1.74-1.09,2.75-2,2.75-3.47a2.13,2.13,0,0,0-2.08-2.32A2.26,2.26,0,0,0,333.86,322.32Z"/><path class="cls-2" d="M373.85,313.22h14.51V317h-9.94v6.93h9.23v3.72h-9.23v10.69h-4.57Z"/><path class="cls-2" d="M410.86,332.87c0,2.16.07,3.94.15,5.44h-4l-.23-2.72h-.11a6.65,6.65,0,0,1-5.85,3.12c-3.27,0-6.29-2-6.29-7.88V320.18h4.58V330c0,3,1,5,3.38,5a3.73,3.73,0,0,0,3.51-2.46,3.33,3.33,0,0,0,.26-1.42V320.18h4.58Z"/><path class="cls-2" d="M419,325.58c0-2.08-.08-3.83-.15-5.39h4l.22,2.72h.11a6.64,6.64,0,0,1,5.81-3.14c3.16,0,6.44,2.06,6.44,7.79v10.76h-4.58V328.07c0-2.61-1-4.58-3.46-4.58a3.83,3.83,0,0,0-3.57,2.68,4.17,4.17,0,0,0-.23,1.45v10.69H419Z"/></svg>