<?xml version="1.0" encoding="utf-8"?>
<!-- Generator: Adobe Illustrator 19.1.0, SVG Export Plug-In . SVG Version: 6.00 Build 0)  -->
<svg version="1.1" id="Layer_1" xmlns="http://www.w3.org/2000/svg" xmlns:xlink="http://www.w3.org/1999/xlink" x="0px" y="0px"
	 viewBox="0 0 900 600" style="enable-background:new 0 0 900 600;" xml:space="preserve">
<style type="text/css">
	.st0{fill:#53C8E5;}
	.st1{fill:#231F20;}
	.st2{fill:#F9A020;}
	.st3{fill:#010101;}
	.st4{fill:#FFFFFF;}
	.st5{fill:#1396D1;}
	.st6{fill:#111111;}
	.st7{fill:#2BC4F2;}
</style>
<g>
	<g>
		<g>
			<path class="st0" d="M853.4,251.5c0,7.7-6.3,14-14,14c-7.7,0-14-6.3-14-14c0-7.7,6.3-14,14-14
				C847.1,237.6,853.4,243.8,853.4,251.5z"/>
		</g>
		<g>
			<path class="st1" d="M361,319.9c0,5.7-1.6,10.8-4.9,15.3c-3.3,4.5-8.1,8-14.4,10.6c-6.3,2.6-13.8,3.8-22.5,3.8
				c-10.4,0-18.9-1.7-25.7-5.2c-4.8-2.5-8.7-5.9-11.7-10.1c-3-4.2-4.5-8.3-4.5-12.2c0-2.3,0.9-4.3,2.7-5.9c1.8-1.6,4.1-2.5,6.9-2.5
				c2.2,0,4.1,0.6,5.7,1.9c1.5,1.3,2.9,3.2,4,5.7c1.3,3,2.8,5.5,4.3,7.5c1.6,2,3.7,3.7,6.6,5c2.8,1.3,6.5,1.9,11.1,1.9
				c6.3,0,11.4-1.3,15.4-3.9c3.9-2.6,5.9-5.9,5.9-9.8c0-3.1-1.1-5.6-3.2-7.6c-2.1-1.9-4.9-3.4-8.3-4.4c-3.4-1-7.9-2.1-13.5-3.3
				c-7.6-1.6-13.9-3.4-19-5.5c-5.1-2.1-9.1-5-12.1-8.6c-3-3.6-4.5-8.2-4.5-13.6c0-5.2,1.6-9.7,4.7-13.7c3.2-4,7.7-7.1,13.7-9.2
				c6-2.2,13-3.2,21.1-3.2c6.5,0,12,0.7,16.7,2.1c4.7,1.4,8.6,3.3,11.7,5.7c3.1,2.4,5.4,4.8,6.8,7.4c1.4,2.6,2.2,5.1,2.2,7.6
				c0,2.3-0.9,4.3-2.7,6.1c-1.8,1.8-4,2.7-6.7,2.7c-2.4,0-4.3-0.5-5.6-1.6c-1.3-1.1-2.6-2.9-4.1-5.3c-1.9-3.5-4.2-6.3-6.9-8.3
				c-2.7-2-7-3-12.9-3c-5.5,0-9.9,1.1-13.3,3.2c-3.4,2.2-5.1,4.7-5.1,7.8c0,1.9,0.6,3.5,1.7,4.9c1.1,1.4,2.7,2.5,4.7,3.5
				c2,1,4,1.7,6.1,2.3c2.1,0.6,5.5,1.4,10.2,2.4c5.9,1.2,11.3,2.6,16.1,4.1c4.8,1.5,8.9,3.3,12.3,5.4c3.4,2.1,6,4.8,7.9,8.1
				C360.1,311.2,361,315.2,361,319.9z"/>
			<path class="st1" d="M432.4,318.5h-38.3c0,4,0.9,7.4,2.7,10.5c1.7,3,4.1,5.3,7,6.8c2.9,1.5,6.1,2.3,9.6,2.3
				c2.3,0,4.5-0.2,6.4-0.7c1.9-0.5,3.8-1.2,5.6-2.3c1.8-1,3.5-2.2,5-3.4c1.5-1.2,3.5-2.8,6-4.9c1-0.8,2.4-1.2,4.3-1.2
				c2,0,3.6,0.5,4.9,1.5c1.2,1,1.9,2.4,1.9,4.2c0,1.6-0.7,3.4-2.1,5.5c-1.4,2.1-3.5,4.1-6.3,6.1c-2.8,1.9-6.3,3.5-10.5,4.8
				c-4.2,1.3-9.1,1.9-14.6,1.9c-12.6,0-22.4-3.2-29.3-9.6c-7-6.4-10.5-15-10.5-26c0-5.1,0.9-9.9,2.6-14.3c1.7-4.4,4.2-8.2,7.5-11.3
				c3.3-3.2,7.4-5.6,12.2-7.3c4.8-1.7,10.2-2.5,16.1-2.5c7.6,0,14.2,1.4,19.7,4.3c5.5,2.9,9.6,6.6,12.3,11.1
				c2.7,4.6,4.1,9.2,4.1,13.9c0,4.4-1.4,7.2-4.2,8.5C441.5,317.8,437.5,318.5,432.4,318.5z M394.1,308.6h35.5
				c-0.5-6-2.3-10.4-5.4-13.4c-3.1-3-7.3-4.4-12.4-4.4c-4.9,0-8.9,1.5-12,4.5C396.7,298.3,394.8,302.7,394.1,308.6z"/>
			<path class="st1" d="M465,339.1v-75.6c0-3.5,0.9-6.1,2.6-7.9c1.7-1.8,4.1-2.7,7.1-2.7c3,0,5.4,0.9,7.2,2.7c1.8,1.8,2.7,4.4,2.7,8
				v75.6c0,3.5-0.9,6.2-2.8,8c-1.8,1.8-4.2,2.7-7.1,2.7c-2.9,0-5.2-0.9-7-2.8C465.9,345.1,465,342.5,465,339.1z"/>
			<path class="st1" d="M504.8,339.1v-75.6c0-3.5,0.9-6.1,2.6-7.9c1.7-1.8,4.1-2.7,7.1-2.7c3,0,5.4,0.9,7.2,2.7
				c1.8,1.8,2.7,4.4,2.7,8v75.6c0,3.5-0.9,6.2-2.8,8c-1.8,1.8-4.2,2.7-7.1,2.7c-2.9,0-5.2-0.9-7-2.8
				C505.7,345.1,504.8,342.5,504.8,339.1z"/>
			<path class="st2" d="M607.7,326.9c0,4.8-1.3,8.9-3.9,12.4c-2.6,3.4-6.5,6-11.7,7.8c-5.1,1.8-11.4,2.7-18.8,2.7
				c-7,0-13.1-1-18.1-2.9c-5-1.9-8.7-4.3-11.1-7.2c-2.4-2.9-3.6-5.8-3.6-8.7c0-1.9,0.8-3.6,2.3-4.9c1.5-1.4,3.5-2,5.8-2
				c2.1,0,3.6,0.4,4.7,1.3c1.1,0.9,2.2,2.1,3.2,3.8c2,3.1,4.4,5.4,7.2,7c2.8,1.5,6.6,2.3,11.4,2.3c3.9,0,7.1-0.8,9.6-2.3
				c2.5-1.6,3.8-3.3,3.8-5.3c0-3.1-1.3-5.3-3.9-6.7c-2.6-1.4-6.9-2.8-12.9-4c-6.7-1.5-12.2-3.1-16.5-4.7c-4.2-1.6-7.6-3.8-10.1-6.5
				c-2.5-2.7-3.8-6-3.8-9.9c0-3.5,1.2-6.8,3.5-9.9c2.3-3.1,5.8-5.6,10.4-7.4c4.6-1.9,10.1-2.8,16.5-2.8c5.1,0,9.6,0.5,13.7,1.4
				c4,0.9,7.4,2.2,10.1,3.8c2.7,1.6,4.8,3.3,6.2,5.2c1.4,1.9,2.1,3.8,2.1,5.6c0,2-0.8,3.6-2.3,4.9c-1.5,1.3-3.7,1.9-6.4,1.9
				c-2,0-3.7-0.5-5.1-1.5c-1.4-1-3-2.6-4.8-4.6c-1.5-1.7-3.2-3.1-5.2-4.1c-2-1-4.7-1.5-8.2-1.5c-3.5,0-6.5,0.7-8.8,2
				c-2.4,1.3-3.5,3-3.5,5c0,1.8,0.9,3.3,2.6,4.5c1.7,1.2,4,2.1,7,2.9c2.9,0.8,6.9,1.7,12,2.8c6.1,1.3,11,2.9,14.9,4.7
				c3.8,1.8,6.8,4,8.7,6.5C606.7,320.8,607.7,323.7,607.7,326.9z"/>
			<path class="st2" d="M675.1,339.8v-2.2c-2.3,2.6-4.8,4.9-7.4,6.6c-2.6,1.8-5.4,3.1-8.5,4c-3.1,0.9-6.6,1.3-10.5,1.3
				c-4.7,0-9-0.9-12.7-2.6c-3.8-1.7-6.7-4.1-8.7-7.2c-2.4-3.7-3.7-9-3.7-16v-34.6c0-3.5,0.9-6.1,2.7-7.8c1.8-1.7,4.1-2.6,7-2.6
				c3,0,5.4,0.9,7.2,2.6c1.8,1.7,2.7,4.3,2.7,7.8v27.9c0,4,0.4,7.4,1.1,10.2c0.8,2.7,2.1,4.9,4.1,6.4c2,1.6,4.7,2.3,8.1,2.3
				c3.3,0,6.4-0.9,9.3-2.6c2.9-1.7,5-4,6.4-6.8c1.1-2.5,1.7-7.9,1.7-16.2v-21.2c0-3.4,0.9-6,2.7-7.8c1.8-1.7,4.2-2.6,7.1-2.6
				c2.9,0,5.3,0.9,7,2.6c1.8,1.7,2.7,4.3,2.7,7.8v50.5c0,3.3-0.8,5.8-2.5,7.5c-1.7,1.7-3.9,2.5-6.6,2.5c-2.7,0-4.9-0.9-6.6-2.6
				C676,345.3,675.1,342.9,675.1,339.8z"/>
			<path class="st2" d="M761.7,341.7l-17.3-25.3l-10.6,8.9v13.9c0,3.4-1,6-3,7.8c-2,1.8-4.3,2.7-6.8,2.7c-3,0-5.4-0.9-7.1-2.7
				c-1.7-1.8-2.6-4.4-2.6-7.9v-74.4c0-3.9,0.8-6.8,2.5-8.9c1.7-2,4.1-3,7.2-3c3,0,5.4,0.9,7.2,2.8c1.8,1.8,2.7,4.5,2.7,8.1V306
				l22-20.6c2.7-2.5,4.8-4.3,6.2-5.2c1.4-0.9,3.2-1.4,5.2-1.4c2.4,0,4.5,0.7,6.1,2.1c1.6,1.4,2.4,3.1,2.4,5.2c0,2.6-2.7,6-8,10.2
				l-10.4,8.5l20.1,28.1c1.5,2.1,2.5,3.7,3.2,4.8c0.6,1.1,1,2.1,1,3.1c0,2.8-0.8,4.9-2.5,6.5c-1.7,1.6-3.9,2.4-6.7,2.4
				c-2.4,0-4.2-0.6-5.5-1.7C765.7,346.8,763.9,344.7,761.7,341.7z"/>
			<path class="st2" d="M813.1,288.6v50.4c0,3.5-0.9,6.1-2.8,7.9c-1.9,1.8-4.2,2.7-7.1,2.7c-2.9,0-5.2-0.9-7-2.8
				c-1.8-1.8-2.7-4.4-2.7-7.9v-49.9c0-3.4,0.9-6,2.7-7.8c1.8-1.7,4.1-2.6,7-2.6c2.9,0,5.2,0.9,7.1,2.6
				C812.2,283.1,813.1,285.5,813.1,288.6z"/>
		</g>
		<g>
			<g>
				<g>
					<path class="st3" d="M226,219.7c-1.9-7.7-5.7-14.6-14.4-15.4c-8.7-0.8-17.1,3.4-23.7,8.6c-3.9,3.1-8,6.1-12.2,8.8
						c-14.4,9.4-24.2,8.1-24.2,8.1s-9.4,1.3-23.8-8.1c-4.2-2.7-7.9-5.7-11.8-8.8c-6.6-5.3-15-9.4-23.7-8.6
						c-8.6,0.8-12.5,7.7-14.4,15.4c0,0-4.7,12.6-3.9,70.5c0,0-0.2,43.7,4.7,54.6c0,0,11.2,39.7,72.8,39.9
						c61.6-0.2,73.2-39.9,73.2-39.9c4.9-10.9,5-54.6,5-54.6C230.5,232.3,226,219.7,226,219.7z"/>
				</g>
				<g>
					<path class="st2" d="M186,231.6c0,0,18.9,6.5,31.4,19.5c0,0,1.3,1.1,2.4,1.2c-0.5-7.3,0.5-14.7-0.1-22
						c-0.2-2.4-0.3-4.8-0.9-7.1c-0.5-2-1.5-4.6-3.4-5.8c-3.3-2.1-8.6-0.2-11.8,1.4c-5.9,2.9-10.3,7.4-15.4,11.3
						C187.8,230.5,186.4,231.8,186,231.6z"/>
				</g>
				<g>
					<path class="st4" d="M211.2,226.1c-8.6-4.5-20.1,7.4-20.3,7.6c6.3,2.8,17.3,8.4,25.7,16.8c0-0.7,0.3-2.3,0.3-2.6
						c0.1-1.1,0.1-2.1,0.1-3.2C217.2,238.5,217.6,229.3,211.2,226.1z"/>
				</g>
				<g>
					<path class="st2" d="M219.8,300.8c0,0,0.8-37.9-26.3-51.9c0,0-17.7-10.1-41.5-9.5c-23.8-0.7-41.5,9.5-41.5,9.5
						c-27.1,14-26.3,51.9-26.3,51.9c-2.6,46.9,14.1,55.7,14.1,55.7c7.8,8,19.4,4.9,19.4,4.9c22.1-7.3,29.5-15.8,29.5-23.5
						c0-8.9-9.7-10.1-14.4-14c-4.8-4-4.4-10.6-4.4-10.6s0.2-0.7,1.6-1.5c2.1-1.5,7.6-3.4,22-3.4c0.1,0,0.2,0,0.3,0
						c0.1,0,0.2,0,0.3,0v0c22.2,0.1,23.6,4.9,23.6,4.9s0.4,6.6-4.4,10.6c-4.7,4-14.7,5.3-14.7,15.2l-0.1-0.1
						c0.6,7.4,8.4,15.5,29.5,22.4c0,0,11.6,3.2,19.4-4.9C205.7,356.5,222.4,347.6,219.8,300.8z"/>
				</g>
				<g>
					<path class="st3" d="M206.7,232c0.3-0.2,0.5-0.3,0.9-0.3c1.4,0.2,0.2,3.3,0,4.1c-0.4,1.8-0.7,3.6-0.7,5.4c0,0.4,0,1.4,0.4,1.7
						c0,0-8.7-5.4-10.6-5.9c2.3,0.7,4.2-0.5,6-1.9c0.7-0.5,1.3-1,2-1.5c0.4-0.3,0.7-0.6,1.1-0.9C206.2,232.5,206.4,232.2,206.7,232z
						"/>
				</g>
				<path class="st5" d="M193.5,248.9c0,0-17.7-10.1-41.5-9.5c-23.8-0.7-41.5,9.5-41.5,9.5c-12.1,6.2-18.6,17.2-22.2,27.4h127.3
					C212.1,266.1,205.5,255.1,193.5,248.9z"/>
				<g>
					<path class="st3" d="M201.9,301.2c0-4.1-3.3-7.5-7.5-7.5c-4.1,0-7.5,3.3-7.5,7.5c0,4.1,3.3,7.5,7.5,7.5
						C198.5,308.7,201.9,305.4,201.9,301.2z"/>
				</g>
				<g>
					<path class="st4" d="M200.7,283.2c0.6,2.2-1.8,4.7-5.4,5.7c-3.6,1-6.9,0-7.5-2.2c-0.6-2.2,1.8-4.7,5.4-5.7
						C196.8,280,200.1,281.1,200.7,283.2z"/>
				</g>
				<g>
					<path class="st2" d="M118,231.6c0,0-18.9,6.5-31.4,19.5c0,0-1.3,1.1-2.4,1.2c0.5-7.3-0.5-14.7,0.1-22c0.2-2.4,0.3-4.8,0.9-7.1
						c0.5-2,1.5-4.6,3.4-5.8c3.3-2.1,8.6-0.2,11.8,1.4c5.9,2.9,10.3,7.4,15.4,11.3C116.2,230.5,117.6,231.8,118,231.6z"/>
				</g>
				<g>
					<path class="st4" d="M92.7,226.1c8.6-4.5,20.1,7.4,20.3,7.6c-6.3,2.8-17.3,8.4-25.7,16.8c0-0.7-0.3-2.3-0.3-2.6
						c-0.1-1.1-0.1-2.1-0.1-3.2C86.8,238.5,86.3,229.3,92.7,226.1z"/>
				</g>
				<g>
					<path class="st3" d="M97.2,232c-0.3-0.2-0.6-0.3-0.9-0.3c-1.4,0.2-0.2,3.3,0,4.1c0.4,1.8,0.7,3.6,0.7,5.4c0,0.4,0,1.4-0.4,1.7
						c0,0,8.7-5.4,10.6-5.9c-2.2,0.7-4.2-0.5-6-1.9c-0.7-0.5-1.3-1-2-1.5c-0.4-0.3-0.7-0.6-1.1-0.9C97.8,232.5,97.5,232.2,97.2,232z
						"/>
				</g>
				<g>
					<path class="st3" d="M102.1,301.2c0-4.1,3.3-7.5,7.5-7.5c4.1,0,7.4,3.3,7.4,7.5c0,4.1-3.3,7.5-7.4,7.5
						C105.4,308.7,102.1,305.4,102.1,301.2z"/>
				</g>
				<g>
					<path class="st4" d="M105.1,283.2c-0.6,2.2,1.8,4.7,5.4,5.7c3.6,1,6.9,0,7.5-2.2c0.6-2.2-1.8-4.7-5.4-5.7
						C109,280,105.6,281.1,105.1,283.2z"/>
				</g>
				<g>
					<path class="st4" d="M151.6,355.2c-23.7,0-27.6,14.4-27.6,14.4c6.1,3.4,27.6,3.1,27.6,3.1s21.6,0.3,27.7-3.1
						C179.2,369.6,175.3,355.2,151.6,355.2z"/>
				</g>
				<g>
					<path class="st4" d="M84.3,320.7c1.8-5.4,9.9-7.9,9.9-7.9c13.4-3.6,17.7,18,17.7,18c25,16.5,32.1,7.2,35.2,7.3
						c-0.1,7.6-7.7,16.1-29.5,23.2c0,0-10.6,2.9-18.3-3.9c-0.5-0.4-1.2-1-1.9-1.6C94.6,353.7,86.2,345.3,84.3,320.7z"/>
				</g>
				<g>
					<path class="st4" d="M220,320.7c-1.8-5.4-9.9-7.9-9.9-7.9c-13.4-3.6-17.8,18-17.8,18c-25.1,16.5-32.3,7.2-35.4,7.3
						c0.1,7.6,7.7,16.1,29.7,23.2c0,0,10.6,2.9,18.4-3.9c0.5-0.4,1.2-1,1.9-1.6C209.6,353.7,218.1,345.3,220,320.7z"/>
				</g>
				<g>
					<path class="st5" d="M74.3,276.8c-0.3-2-0.5-4.1-0.6-6.2c-11.9,6.5-58.5,34.3,0.2,38.5C74,309,73.4,288.3,74.3,276.8z"/>
					<path class="st6" d="M77.7,312.9l-3.9-0.3c-20.2-1.4-30.4-5.7-32.1-13.5c-2.4-11,15.2-23.3,30.4-31.7l5.1-2.8l0.2,5.8
						c0.1,2,0.2,3.9,0.5,5.8l0.1,0.4l0,0.4c-1,11.2-0.4,31.6-0.4,31.9L77.7,312.9z M70.7,276.4c-14.1,8.4-23,16.8-22.1,21.2
						c0.3,1.4,2.8,5.7,21.7,7.6c-0.1-6.5-0.3-19.6,0.4-28.3C70.7,276.7,70.7,276.6,70.7,276.4z"/>
				</g>
			</g>
			<path class="st0" d="M169.4,258.7c0,2.2-1.5,4-3.3,4h-29c-1.9,0-3.3-1.8-3.3-4l0,0c0-2.2,1.5-4,3.3-4h29
				C167.9,254.7,169.4,256.5,169.4,258.7L169.4,258.7z"/>
		</g>
	</g>
	<g>
		<g>
			<g>
				<path class="st3" d="M226.1,221.1c-1.9-7.7-5.7-14.6-14.4-15.4c-8.7-0.8-17.1,3.4-23.7,8.6c-3.9,3.1-8,6.1-12.2,8.8
					c-14.4,9.4-24.2,8.1-24.2,8.1s-9.3,1.3-23.8-8.1c-4.2-2.7-7.9-5.7-11.8-8.8c-6.6-5.2-15-9.4-23.7-8.6
					c-8.6,0.8-12.5,7.7-14.4,15.4c0,0-4.6,12.6-3.9,70.5c0,0-0.2,43.7,4.7,54.6c0,0,11.2,39.7,72.8,39.9
					c61.6-0.2,73.2-39.9,73.2-39.9c4.9-10.9,5-54.6,5-54.6C230.6,233.7,226.1,221.1,226.1,221.1z"/>
			</g>
			<g>
				<path class="st2" d="M186,233c0,0,18.9,6.5,31.4,19.5c0,0,1.3,1.1,2.4,1.2c-0.5-7.3,0.5-14.7-0.1-22c-0.2-2.4-0.3-4.8-0.9-7.1
					c-0.5-2-1.5-4.6-3.4-5.8c-3.3-2.1-8.6-0.2-11.8,1.4c-5.9,2.9-10.3,7.4-15.4,11.3C187.9,231.9,186.5,233.2,186,233z"/>
			</g>
			<g>
				<path class="st4" d="M211.3,227.5c-8.6-4.4-20.1,7.4-20.3,7.6c6.3,2.8,17.3,8.4,25.7,16.8c0-0.7,0.3-2.3,0.3-2.6
					c0.1-1.1,0.1-2.1,0.1-3.2C217.2,239.9,217.7,230.8,211.3,227.5z"/>
			</g>
			<g>
				<path class="st2" d="M219.9,302.2c0,0,0.8-37.9-26.3-51.9c0,0-17.7-10.1-41.5-9.5c-23.8-0.7-41.5,9.5-41.5,9.5
					c-27.1,14-26.3,51.9-26.3,51.9c-2.6,46.9,14.1,55.7,14.1,55.7c7.8,8,19.4,4.9,19.4,4.9c22.1-7.3,29.5-15.8,29.5-23.5
					c0-8.9-9.7-10.1-14.4-14.1c-4.8-4-4.4-10.6-4.4-10.6s0.2-0.7,1.6-1.5c2.1-1.5,7.6-3.4,22-3.4c0.1,0,0.2,0,0.3,0
					c0.1,0,0.2,0,0.3,0v0c22.2,0.1,23.6,5,23.6,5s0.4,6.6-4.4,10.6c-4.7,4-14.7,5.3-14.7,15.2l-0.1,0c0.6,7.4,8.4,15.5,29.5,22.4
					c0,0,11.6,3.2,19.4-4.9C205.8,357.9,222.5,349,219.9,302.2z"/>
			</g>
			<g>
				<path class="st3" d="M206.8,233.4c0.3-0.2,0.5-0.3,0.9-0.3c1.4,0.2,0.2,3.3,0,4.1c-0.4,1.8-0.7,3.6-0.7,5.4c0,0.5,0,1.4,0.4,1.7
					c0,0-8.7-5.4-10.6-5.9c2.3,0.6,4.2-0.5,6-1.9c0.7-0.5,1.3-1,2-1.5c0.4-0.3,0.7-0.6,1.1-0.9C206.2,233.9,206.5,233.6,206.8,233.4
					z"/>
			</g>
			<path class="st7" d="M193.5,250.3c0,0-17.7-10.1-41.5-9.5c-23.8-0.7-41.5,9.5-41.5,9.5c-12.1,6.2-18.6,17.2-22.2,27.4h127.3
				C212.1,267.5,205.6,256.5,193.5,250.3z"/>
			<g>
				<path class="st3" d="M201.9,302.7c0-4.1-3.3-7.5-7.5-7.5c-4.1,0-7.5,3.3-7.5,7.5c0,4.1,3.3,7.5,7.5,7.5
					C198.6,310.1,201.9,306.8,201.9,302.7z"/>
			</g>
			<g>
				<path class="st4" d="M200.8,284.6c0.6,2.2-1.8,4.7-5.4,5.7c-3.6,1-6.9,0-7.5-2.2c-0.6-2.2,1.8-4.7,5.4-5.7
					C196.8,281.5,200.2,282.5,200.8,284.6z"/>
			</g>
			<g>
				<path class="st2" d="M118.1,233c0,0-18.9,6.5-31.4,19.5c0,0-1.3,1.1-2.4,1.2c0.5-7.3-0.5-14.7,0.1-22c0.2-2.4,0.3-4.8,0.9-7.1
					c0.5-2,1.5-4.6,3.4-5.8c3.3-2.1,8.6-0.2,11.8,1.4c5.9,2.9,10.3,7.4,15.4,11.3C116.2,231.9,117.6,233.2,118.1,233z"/>
			</g>
			<g>
				<path class="st4" d="M92.8,227.5c8.6-4.4,20.1,7.4,20.3,7.6c-6.3,2.8-17.3,8.4-25.7,16.8c0.1-0.7-0.3-2.3-0.3-2.6
					c-0.1-1.1-0.1-2.1-0.1-3.2C86.9,239.9,86.4,230.8,92.8,227.5z"/>
			</g>
			<g>
				<path class="st3" d="M97.3,233.4c-0.3-0.2-0.5-0.3-0.9-0.3c-1.4,0.2-0.2,3.3,0,4.1c0.4,1.8,0.7,3.6,0.7,5.4c0,0.5,0,1.4-0.4,1.7
					c0,0,8.7-5.4,10.6-5.9c-2.2,0.6-4.2-0.5-6-1.9c-0.7-0.5-1.3-1-2-1.5c-0.3-0.3-0.7-0.6-1-0.9C97.9,233.9,97.6,233.6,97.3,233.4z"
					/>
			</g>
			<g>
				<path class="st3" d="M102.2,302.7c0-4.1,3.3-7.5,7.5-7.5c4.1,0,7.4,3.3,7.4,7.5c0,4.1-3.3,7.5-7.4,7.5
					C105.5,310.1,102.2,306.8,102.2,302.7z"/>
			</g>
			<g>
				<path class="st4" d="M105.1,284.6c-0.6,2.2,1.8,4.7,5.4,5.7c3.6,1,6.9,0,7.5-2.2c0.6-2.2-1.8-4.7-5.4-5.7
					C109.1,281.5,105.7,282.5,105.1,284.6z"/>
			</g>
			<g>
				<path class="st4" d="M151.7,356.6C128,356.6,124,371,124,371c6.1,3.4,27.6,3.1,27.6,3.1s21.6,0.3,27.7-3.1
					C179.3,371,175.4,356.6,151.7,356.6z"/>
			</g>
			<g>
				<path class="st4" d="M84.3,322.2c1.8-5.4,9.9-7.9,9.9-7.9c13.4-3.6,17.7,18,17.7,18c25,16.5,32.1,7.2,35.2,7.3
					c-0.1,7.6-7.7,16.1-29.5,23.2c0,0-10.6,2.9-18.3-3.9c-0.5-0.4-1.2-1-1.9-1.6C94.6,355.1,86.2,346.7,84.3,322.2z"/>
			</g>
			<g>
				<path class="st4" d="M220.1,322.2c-1.8-5.4-9.9-7.9-9.9-7.9c-13.4-3.6-17.8,18-17.8,18c-25.1,16.5-32.3,7.2-35.4,7.3
					c0.1,7.6,7.8,16.1,29.7,23.2c0,0,10.6,2.9,18.4-3.9c0.5-0.4,1.2-1,1.9-1.6C209.7,355.1,218.2,346.7,220.1,322.2z"/>
			</g>
			<g>
				<path class="st7" d="M74.4,278.2c-0.3-2-0.5-4.1-0.6-6.2c-11.9,6.5-58.5,34.3,0.2,38.5C74,310.4,73.4,289.7,74.4,278.2z"/>
				<path class="st3" d="M77.7,314.3l-3.9-0.3c-20.2-1.4-30.4-5.7-32.1-13.5c-2.4-11.1,15.2-23.3,30.4-31.7l5.1-2.8l0.2,5.8
					c0.1,2,0.3,3.9,0.5,5.8L78,278l0,0.4c-1,11.2-0.4,31.6-0.4,31.9L77.7,314.3z M70.8,277.8c-14.1,8.4-23,16.8-22.1,21.2
					c0.3,1.4,2.8,5.7,21.7,7.6c-0.1-6.5-0.3-19.6,0.4-28.3C70.8,278.1,70.8,278,70.8,277.8z"/>
			</g>
		</g>
		<path class="st2" d="M169.5,260.1c0,2.2-1.5,4-3.3,4h-29c-1.8,0-3.3-1.8-3.3-4l0,0c0-2.2,1.5-4,3.3-4h29
			C168,256.1,169.5,257.9,169.5,260.1L169.5,260.1z"/>
	</g>
</g>
</svg>
